<?xml version="1.0" encoding="utf-8"?>
<!-- Generator: Adobe Illustrator 27.5.0, SVG Export Plug-In . SVG Version: 6.00 Build 0)  -->
<svg version="1.1" xmlns="http://www.w3.org/2000/svg" xmlns:xlink="http://www.w3.org/1999/xlink" x="0px" y="0px"
	 viewBox="0 0 1122 1122" style="enable-background:new 0 0 1122 1122;" xml:space="preserve">
<g id="Bg">
	<g>
		<g>
			<rect style="fill:#FFFFFF;" width="1122" height="1122"/>
		</g>
	</g>
</g>
<g id="Object">
	<g>
		<path style="fill:#616E7D;" d="M645.114,426.782h-16.492c0-29.855-30.291-54.045-67.626-54.045
			c-37.365,0-67.626,24.19-67.626,54.045h-16.492c-33.958-33.286-80.39-53.878-131.711-53.878
			c-103.92,0-188.171,84.247-188.171,188.179c0,103.929,84.251,188.179,188.171,188.179c51.938,0,98.945-21.045,133.018-55.064
			h165.639c34.049,34.016,81.079,55.056,133,55.056c103.921,0,188.177-84.251,188.177-188.183
			c0-103.92-84.257-188.167-188.177-188.167C725.522,372.904,679.072,393.496,645.114,426.782z M345.168,724.222
			c-90.103,0-163.145-73.039-163.145-163.139c0-90.103,73.042-163.142,163.145-163.142c90.091,0,163.139,73.039,163.139,163.142
			C508.307,651.183,435.26,724.222,345.168,724.222z M939.965,561.071c0,90.097-73.054,163.134-163.14,163.134
			c-90.109,0-163.145-73.036-163.145-163.134c0-90.093,73.036-163.139,163.145-163.139
			C866.91,397.932,939.965,470.978,939.965,561.071z"/>
		<path style="fill:#AAD4C8;" d="M182.023,561.083c0,90.1,73.042,163.139,163.145,163.139c90.091,0,163.139-73.039,163.139-163.139
			c0-90.103-73.048-163.142-163.139-163.142C255.065,397.941,182.023,470.98,182.023,561.083z M494.957,561.083
			c0,82.725-67.063,149.795-149.788,149.795c-82.738,0-149.794-67.069-149.794-149.795c0-82.728,67.056-149.794,149.794-149.794
			C427.894,411.289,494.957,478.355,494.957,561.083z"/>
		<path style="fill:#82BFAB;" d="M195.374,561.083c0,82.725,67.056,149.795,149.794,149.795
			c82.725,0,149.788-67.069,149.788-149.795c0-82.728-67.063-149.794-149.788-149.794
			C262.431,411.289,195.374,478.355,195.374,561.083z M439.096,561.083c0,51.878-42.074,93.919-93.928,93.919
			c-51.867,0-93.94-42.041-93.94-93.919c0-51.872,42.074-93.925,93.94-93.925C397.022,467.158,439.096,509.211,439.096,561.083z"/>
		<path style="fill:#616E7D;" d="M251.228,561.083c0,51.878,42.074,93.919,93.94,93.919c51.854,0,93.928-42.041,93.928-93.919
			c0-51.872-42.074-93.925-93.928-93.925C293.302,467.158,251.228,509.211,251.228,561.083z M379.308,561.083
			c0,18.862-15.27,34.155-34.14,34.155c-18.882,0-34.158-15.293-34.158-34.155c0-18.864,15.276-34.146,34.158-34.146
			C364.038,526.937,379.308,542.219,379.308,561.083z M358.803,484.7c0.75,0.998,0.926,2.294,0.545,3.465l-4.6,13.541
			c-0.49,1.441-1.803,2.439-3.328,2.536c-23.646,1.407-45.633,12.833-60.369,31.344c-0.993,1.241-2.669,1.731-4.128,1.226
			l-13.314-4.515c-1.992-0.681-3.069-2.859-2.391-4.869l0.526-0.989c19.391-26.928,50.807-43.136,83.954-43.33
			C356.939,483.109,358.077,483.696,358.803,484.7z"/>
		<path style="fill:#82BFAB;" d="M271.744,526.438l-0.526,0.989c-0.678,2.01,0.399,4.188,2.391,4.869l13.314,4.515
			c1.459,0.505,3.135,0.015,4.128-1.226c14.737-18.51,36.723-29.936,60.369-31.344c1.525-0.097,2.838-1.095,3.328-2.536l4.6-13.541
			c0.38-1.171,0.205-2.466-0.545-3.465c-0.726-1.005-1.864-1.591-3.105-1.591C322.552,483.302,291.135,499.51,271.744,526.438z"/>
		<path style="fill:#AAD4C8;" d="M311.01,561.083c0,18.862,15.276,34.155,34.158,34.155c18.87,0,34.14-15.293,34.14-34.155
			c0-18.864-15.27-34.146-34.14-34.146C326.286,526.937,311.01,542.219,311.01,561.083z"/>
		<path style="fill:#AAD4C8;" d="M613.68,561.071c0,90.097,73.036,163.134,163.145,163.134c90.085,0,163.14-73.036,163.14-163.134
			c0-90.093-73.054-163.139-163.14-163.139C686.716,397.932,613.68,470.978,613.68,561.071z M926.596,561.071
			c0,82.738-67.051,149.794-149.771,149.794c-82.743,0-149.806-67.057-149.806-149.794c0-82.728,67.063-149.794,149.806-149.794
			C859.545,411.276,926.596,478.342,926.596,561.071z"/>
		<path style="fill:#82BFAB;" d="M627.019,561.071c0,82.738,67.063,149.794,149.806,149.794c82.72,0,149.771-67.057,149.771-149.794
			c0-82.728-67.051-149.794-149.771-149.794C694.082,411.276,627.019,478.342,627.019,561.071z M870.741,561.071
			c0,51.878-42.049,93.931-93.916,93.931c-51.872,0-93.946-42.053-93.946-93.931c0-51.869,42.074-93.918,93.946-93.918
			C828.692,467.153,870.741,509.202,870.741,561.071z"/>
		<path style="fill:#616E7D;" d="M682.879,561.071c0,51.878,42.074,93.931,93.946,93.931c51.867,0,93.916-42.053,93.916-93.931
			c0-51.869-42.049-93.918-93.916-93.918C724.953,467.153,682.879,509.202,682.879,561.071z M810.989,561.071
			c0,18.874-15.305,34.164-34.164,34.164c-18.858,0-34.17-15.29-34.17-34.164c0-18.855,15.312-34.145,34.17-34.145
			C795.683,526.926,810.989,542.216,810.989,561.071z M790.454,484.689c0.75,1.001,0.927,2.305,0.539,3.477l-4.594,13.536
			c-0.49,1.446-1.803,2.432-3.334,2.542c-23.64,1.398-45.651,12.822-60.364,31.344c-0.998,1.235-2.669,1.719-4.121,1.211
			l-13.327-4.512c-1.973-0.675-3.062-2.863-2.385-4.857l0.527-0.995c19.391-26.928,50.783-43.136,83.948-43.339
			C788.584,483.093,789.734,483.696,790.454,484.689z"/>
		<path style="fill:#82BFAB;" d="M703.396,526.432l-0.527,0.995c-0.677,1.994,0.412,4.182,2.385,4.857l13.327,4.512
			c1.453,0.508,3.123,0.024,4.121-1.211c14.712-18.522,36.724-29.945,60.364-31.344c1.531-0.109,2.845-1.095,3.334-2.542
			l4.594-13.536c0.387-1.171,0.211-2.475-0.539-3.477c-0.72-0.993-1.87-1.595-3.11-1.595
			C754.178,483.296,722.786,499.504,703.396,526.432z"/>
		<path style="fill:#AAD4C8;" d="M742.655,561.071c0,18.874,15.312,34.164,34.17,34.164c18.858,0,34.164-15.29,34.164-34.164
			c0-18.855-15.305-34.145-34.164-34.145C757.967,526.926,742.655,542.216,742.655,561.071z"/>
	</g>
</g>
</svg>
