<?xml version="1.0" encoding="UTF-8"?>
<svg xmlns="http://www.w3.org/2000/svg" version="1.1" viewBox="0 0 792 612">
  <defs>
    <style>
      .cls-1 {
        fill: #232a58;
      }

      .cls-2, .cls-3 {
        fill: #232957;
      }

      .cls-4 {
        fill: #5f605f;
      }

      .cls-3 {
        font-family: MonotypeCorsiva, 'Monotype Corsiva';
        font-size: 56.22px;
        letter-spacing: -.05em;
      }
    </style>
  </defs>
  <!-- Generator: Adobe Illustrator 28.7.0, SVG Export Plug-In . SVG Version: 1.2.0 Build 136)  -->
  <g>
    <g id="Layer_1">
      <g>
        <path class="cls-1" d="M539.42,341.38c-2.45,0-4.91.07-7.35-.01-7.16-.25-10.59-4.75-9.26-11.87,2.69-14.59,5.31-29.2,7.93-43.79.29-1.56.37-3.16.45-4.73.73-15.46-4.21-15.19-16.08-16.32-3.33-.32-5.23,1.18-5.84,4.83-3.41,20.31-7.01,40.59-10.59,60.86-1.42,8.01-5.12,11.02-13.39,11.05-4.32.02-8.66.01-12.98,0-7.52-.02-11.14-4.3-9.83-11.64,3.49-19.7,6.98-39.41,10.46-59.11.89-5.04.47-5.78-4.51-5.68-4.59.09-9.17.64-13.75,1.11-3.66.39-5.5,2.62-6.13,6.21-3.04,17.14-6.18,34.28-9.27,51.43-.4,2.26-.7,4.55-1.06,6.83-1.18,7.33-5.23,10.82-12.66,10.85-5.04.03-10.1.15-15.14-.07-6-.26-9.8-4.7-8.82-10.36,4.4-25.24,8.77-50.5,13.46-75.68,2.42-13.07,7.98-17.62,21.25-19.34,29.29-3.76,58.65-4.06,88.07-2.32,6.44.39,12.97,1.28,19.19,2.94,21.55,5.76,26.84,17.26,24.84,36.74-1.73,16.87-5.47,33.53-8.31,50.27-.51,2.98-.86,6.02-1.62,8.92-1.53,5.83-5.23,8.67-11.24,8.89-2.6.09-5.19.01-7.79.01"/>
        <path class="cls-1" d="M233.18,341.02c-11.82,0-23.71.72-35.46-.17-16.39-1.26-24.04-10.4-23.21-26.7.42-8.66,2.34-17.12,6.51-24.91,5.31-9.96,14.35-15.56,23.89-20.49,14.73-7.6,29.56-14.98,44.33-22.52,1.92-.97,4.04-1.97,5.37-3.53,1.27-1.48,2.6-4.04,2.1-5.55-.42-1.35-3.29-2.65-5.1-2.69-9.66-.15-19.33.09-28.99.21-6.78.08-13.56.31-20.34.19-5.65-.09-9.3-3.89-8.81-9.49.46-5.13,1.37-10.29,2.61-15.3,1.22-4.97,4.91-7.6,10.27-7.62,21.21-.08,42.43-.3,63.63.08,17.67.31,26.89,12,24.47,30.16-.48,3.57-1.26,7.09-1.97,10.62-2.61,12.97-10.38,21.97-21.85,27.93-16.36,8.51-32.84,16.81-49.24,25.23-2.17,1.12-4.72,2.04-6.21,3.8-1.5,1.77-1.91,4.47-2.79,6.77,1.88.67,3.75,1.93,5.63,1.94,17.17.07,34.34-.09,51.51-.14,9.08-.03,12.4,4.13,10.67,13.21-.5,2.69-.82,5.41-1.35,8.09-1.65,8.51-4.91,11.22-13.62,11.26-8.66.03-17.31,0-25.97-.01h-6.06v-.37Z"/>
        <path class="cls-4" d="M79.83,396.99c-8.21-2.89-14.97-7.94-20.73-14.19-19.01-20.62-29.1-45.42-32.66-72.9-1.2-9.19-1.17-18.67-.56-27.95,1.18-18.19,12.12-30.5,26.84-39.5,31.16-19.06,64.88-25.26,100.84-18.3,4.08.79,8.05,2.24,11.97,3.63,9.48,3.32,12.56,7.67,12.98,17.83.34,8.13-2.52,15.16-8.25,20.63-4.65,4.44-10.06,8.11-15.31,11.87-1.09.79-3,.78-4.47.62-19.12-2.09-38.29-3.08-57.26.57-8.69,1.67-17.49,4.11-25.46,7.86-22.75,10.7-31.84,32.12-24.87,57.01,5.49,19.61,16.76,35.5,32.18,48.6,1.62,1.37,3.17,2.81,4.76,4.23"/>
        <path class="cls-1" d="M337.87,342.82c-8.15-.83-16.41-1.15-24.43-2.68-7.95-1.5-15.13-5.09-18.82-13.03-1.06-2.29-1.68-4.92-1.9-7.43-.79-9.07.65-17.87,4.57-26.08,5.58-11.69,16.3-15.62,28.03-16.44,9.86-.69,19.84.18,29.78.46,2.85.08,5.83,1.13,6.85-3.05,1.21-5,.02-9.32-4.05-9.94-5.62-.85-11.47-.97-17.12-.38-7.56.79-14.99,2.79-22.54,3.88-8.55,1.24-12.64-3.25-10.94-11.58,3.52-17.38,4.37-18.63,21.74-21.75,14.95-2.68,30.09-3.41,45.14-.53,17.37,3.32,24.42,11.2,23.89,28.84-.35,11.73-2.55,23.43-4.24,35.11-.87,5.96-2.02,11.94-3.76,17.7-5.16,17.13-18.26,23.89-34.86,25.56-5.72.57-11.5.63-17.26.91-.03.15-.06.3-.08.43M340.55,314.87l.05.34c3.4-.46,6.86-.69,10.19-1.46,3.73-.87,5.99-5.11,5.8-9.97-.16-3.88-3.16-4.71-5.99-4.91-4.83-.34-9.75-.59-14.52.03-4.63.61-7.65,5.97-6.82,10.9.81,4.72,4.63,4.84,8.28,5.05,1.01.06,2.01.01,3.02.01"/>
        <path class="cls-1" d="M624.27,342.78c-8.89-.73-17.91-.79-26.63-2.39-10.73-1.98-20.02-7.01-21.74-19.19-1.56-11.12.58-21.93,6.86-31.4,6.23-9.4,16.33-12.16,26.73-12.75,9.59-.56,19.28.23,28.92.61,2.97.11,5.83.9,6.77-3.2,1.14-5.04.13-9.05-3.81-9.66-5.75-.89-11.76-1.14-17.53-.56-7.57.75-14.99,2.89-22.54,3.88-8.79,1.13-12.66-3.37-11-12.1.24-1.27.59-2.53.77-3.81,1.36-9.65,6.61-14.95,16.46-16.63,18.34-3.14,36.64-4.87,54.87-.07,12.34,3.26,18.3,10.25,18.26,23.01-.03,11.87-1.7,23.76-2.9,35.62-.49,4.86-1.56,9.66-2.49,14.47-3.96,20.29-15.87,31-36.66,32.9-4.73.43-9.5.55-14.25.81-.02.16-.05.31-.07.47M623.52,314.87c.01.11.03.23.05.33,3.41-.43,6.87-.63,10.2-1.4,3.83-.88,6.22-5.05,6.07-9.86-.13-4.04-3.32-4.94-6.29-5.18-4.69-.37-9.49-.57-14.12.07-4.8.67-7.62,5.61-7.04,10.76.39,3.55,3.04,5.18,8.55,5.27.86.01,1.73,0,2.58,0"/>
        <path class="cls-4" d="M18.96,279.68c-2.5-23.87-1.89-47.4,7.26-70.08,11.1-27.55,31.55-44.85,59.29-53.94,28.29-9.25,57.2-9.43,86.29-4.65,9.51,1.57,18.98,3.44,28.41,5.5,8.84,1.92,13.27,9.96,9.39,18.32-2.34,5.05-6.37,9.47-10.17,13.69-7.66,8.52-16.95,10.74-28.62,9.33-30.72-3.71-61.56-4.09-91.93,3.43-21.05,5.21-39.52,14.61-50.83,34.27-6.85,11.92-9.41,24.96-9.09,38.63.03,1.83,0,3.67,0,5.5"/>
        <path class="cls-1" d="M685.09,330.3c1.21-6.82,2.79-15.61,4.35-24.4,2.9-16.3,5.79-32.6,8.68-48.91,3.06-17.36,9.7-19.74,24.11-22.54,13.12-2.55,26.39-2.55,39.63-.86,8.77,1.12,14.59,5.02,11.73,15.28-.77,2.77-.88,5.7-1.53,8.5-1.62,7.06-5.52,9.91-12.75,9.27-6.16-.56-12.29-1.64-18.46-1.9-6.6-.27-8.62,1.85-9.72,8.41-3.19,18.88-6.42,37.77-9.69,56.64-1.38,7.91-5.94,11.6-14.13,11.62-4.61.01-9.24.13-13.85-.05-6.06-.23-8.66-3.11-8.36-11.06"/>
        <path class="cls-4" d="M53.42,161.01c45.18-68.56,137.53-71.18,192.76-44.03-1.11,4.99-4.03,8.82-8.31,11.38-6.22,3.69-12.83,5.19-20.26,3.95-25.92-4.32-52.06-6.86-78.37-5.36-20.88,1.18-41.4,4.79-59.71,15.53-9.58,5.61-18.22,12.87-26.11,18.54"/>
        <path class="cls-4" d="M65.14,376.3c-6.78-10.58-13.2-21.46-13.81-34.7-.54-11.44,4.96-19.21,14.48-24.6,10.12-5.74,21.37-7.89,32.74-8.7,12.2-.87,24.48-.85,36.73-.89,8.47-.05,12.77,5.48,11.72,14.1-.86,6.88-4.55,12.28-8.51,17.68-6.4,8.74-14.43,13.01-25.58,11.42-8.54-1.21-17.22-1.78-25.86-1.96-4.8-.1-9.87.48-14.39,2.02-9.33,3.2-12.43,10.03-9.71,19.52.59,2.07,1.45,4.06,2.18,6.1"/>
        <path class="cls-4" d="M543.7,402.79h-6.37c0-11.41-.29-22.63.15-33.82.15-4.05,3.77-5.84,7.72-6.2,5.41-.49,9.18,1.45,10.62,6.13,1.48,4.8,2.4,9.78,3.57,14.68.83,3.5,1.49,7.06,2.58,10.46.4,1.25,1.86,2.16,2.85,3.22,1.1-1.1,2.85-2.04,3.19-3.34,2.04-7.79,3.67-15.68,5.58-23.5,1.65-6.79,8.25-9.98,14.35-6.64,1.89,1.03,4.12,3.56,4.19,5.47.4,11.06.19,22.14.19,33.48h-5.78c-.13-1.89-.34-3.72-.34-5.53-.02-7.78.02-15.56.01-23.35-.01-2.18.05-4.95-3-4.6-1.38.17-3.24,2.23-3.65,3.76-2.04,7.5-3.64,15.11-5.41,22.68-1.23,5.28-4.01,7.84-8.73,8.09-4.7.23-8.38-2.45-9.69-7.54-1.97-7.66-3.67-15.39-5.49-23.1-.51-2.15-1.12-4.79-3.93-3.88-1.24.4-2.46,2.92-2.5,4.52-.26,7.78-.13,15.56-.13,23.35v5.65Z"/>
        <path class="cls-4" d="M373.55,402.74c0-11.49-.11-22.57.07-33.64.06-3.68,2.77-5.55,6.15-6.23,4.86-.98,8.86.74,10.91,4.93,2.66,5.43,5.08,10.98,7.59,16.48,1.56,3.41,2.9,6.92,4.73,10.17.69,1.25,2.44,1.9,3.69,2.82.78-1.34,2.18-2.65,2.22-4,.22-8.21.11-16.43.11-24.66v-4.55c5.92-1.27,6.24-1.06,6.26,4.17.02,8.66.02,17.3-.05,25.95-.05,5.87-1.64,8.07-6.38,9.22-4.76,1.14-8.81-.59-11.06-5.27-4.06-8.44-7.75-17.04-11.86-25.46-.72-1.49-2.68-2.38-4.07-3.55-.78,1.65-2.18,3.28-2.24,4.95-.23,7.93-.08,15.85-.08,23.79v4.88h-6Z"/>
        <path class="cls-4" d="M165,363.33c7.48-.08,14.74.69,18.27,8.54,3.47,7.71,3.3,15.69-.3,23.37-1.81,3.84-5.07,6.55-9.34,6.84-5.82.38-11.71.45-17.51-.08-4.6-.42-7.75-3.65-9.54-7.86-3.09-7.23-3-14.58-.02-21.8,2.25-5.43,6.72-8.05,12.4-8.74,1.99-.24,4.03-.21,6.04-.29M164.14,396.55c9.61.02,13.11-1.56,14.18-7.34.72-3.87.51-8.02.01-11.95-.55-4.37-3.72-7.09-7.99-7.1-6.07-.01-13.27-2.57-17.39,4.17-3.33,5.44-3.04,11.7-.3,17.41,2.39,4.95,7.32,4.92,11.49,4.81"/>
        <path class="cls-4" d="M343.93,363.52c1.73,0,3.47-.09,5.18.02,7.42.49,12.22,4.41,14.28,11.6,1.73,5.99,1.51,11.96-.47,17.83-1.69,5.02-5.17,8.58-10.46,9.1-5.51.56-11.14.49-16.67.09-5.19-.38-8.79-3.72-10.57-8.44-2.62-6.94-2.85-14.16.05-21.08,3.47-8.3,10.75-9.57,18.66-9.13M343.86,369.95c-8.89,0-12.08,1.38-13.25,7.2-.8,3.96-.7,8.3,0,12.3.81,4.63,4.03,6.93,9.1,6.94,6.11.03,13.13,2.05,16.87-5.29,5.64-11.09-.47-21.16-12.72-21.16"/>
        <path class="cls-4" d="M707.16,363.37c.86,0,1.73.02,2.58,0,7.44-.23,14.52.95,17.73,8.65,3.52,8.46,3.65,17.17-1.67,25.17-2.88,4.36-7.63,5.49-12.47,5.74-4.88.26-9.8-.03-14.69.08-2.88.07-3.85-1.41-3.85-3.97-.01-10.66.01-21.32-.02-31.97,0-2.57,1.34-3.65,3.75-3.66,2.88-.01,5.76,0,8.65,0v-.03ZM701.31,382.99h-.02v3.9c0,9.72.01,9.9,9.91,9.54,3-.11,6.91-.7,8.73-2.63,4.76-5.11,4.37-11.7,2.24-17.93-1.8-5.26-6.42-6.08-11.33-5.92-2.16.07-4.41-.34-6.46.15-1.19.29-2.79,1.83-2.93,2.96-.39,3.27-.14,6.62-.14,9.94"/>
        <path class="cls-4" d="M103.5,402.87v-6.34c5.41,0,10.67.01,15.93,0,2.16-.01,4.32-.01,6.48-.13,3.11-.16,5.19-1.5,5.36-4.94.18-3.71-1.98-5.31-5.24-5.51-4.01-.26-8.06-.11-12.09-.25-8.25-.27-12.71-5.83-11.15-13.83.89-4.55,4.15-7.97,8.77-8.22,6.91-.37,13.83-.34,20.73-.14.9.02,2.17,2.01,2.5,3.29.53,2.05-.55,3.12-2.87,3.09-5.61-.1-11.24,0-16.86-.02-3.49-.01-5.97,1.11-5.94,5.12.03,3.85,2.65,4.8,5.8,4.89,3.74.11,7.5-.08,11.24.06,9.26.34,14.13,8.1,10.67,16.66-1.77,4.4-5.45,5.99-9.58,6.16-7.74.32-15.51.09-23.77.09"/>
        <path class="cls-4" d="M425.04,396.55c6.5,0,12.67.01,18.82-.01,1.3,0,2.61.01,3.88-.15,2.95-.39,4.73-1.93,4.8-5.09.07-3.16-1.57-4.99-4.57-5.2-4.3-.32-8.62-.21-12.93-.41-7.56-.37-11.45-4.57-11.13-11.9.25-5.95,3.65-9.89,9.62-10.18,7.32-.33,14.67-.08,22.38-.08v6.34h-19.44c-2.78,0-5.25.55-5.97,3.75-.8,3.52,1.15,5.96,5.25,6.22,3.73.23,7.49.01,11.23.1,8.75.22,13.36,5.63,11.92,14.12-.73,4.35-3.13,7.87-7.73,8.09-8.57.4-17.18.11-26.12.11v-5.71Z"/>
        <path class="cls-4" d="M656.86,382.91c-4.83-3.48-6.04-7.98-4.05-13.09,1.97-5.02,6.45-6.27,11.32-6.32,6.75-.08,13.49-.02,20.53-.02v6.39c-5.8,0-11.53-.01-17.25.01-1.59.01-3.59-.43-4.65.35-1.64,1.2-3.63,3.29-3.59,4.99.03,1.58,2.33,4.29,3.88,4.47,5.56.67,11.23.67,16.84.57,3.75-.06,5.6.94,4.05,5.68-4.73,0-9.73-.01-14.73.01-2.02.01-4.05.01-6.05.22-2.82.31-4.46,1.91-4.45,4.86.02,3.03,1.46,5.13,4.55,5.28,5.48.24,10.96.18,16.44.19,5.63,0,5.71.08,4.85,5.98-7.86,0-15.72.19-23.58-.07-4.24-.15-7.32-2.57-8.57-6.79-1.29-4.4-.33-8.26,3.2-11.34.31-.27.57-.62,1.25-1.37"/>
        <path class="cls-4" d="M257.64,363.6h6.28c0,9.86.38,19.5-.14,29.09-.34,6.26-3.34,9.1-9.56,9.88-4.68.58-9.54.58-14.21.02-6.28-.75-9.38-3.77-9.73-10.24-.5-9.46-.13-18.96-.13-28.72h6.29c.09,1.45.27,2.96.27,4.48.03,6.92-.02,13.85.03,20.78.06,5.57,1.76,7.46,7.12,7.57,12.66.3,14.2.56,13.8-12.96-.19-6.47-.03-12.95-.03-19.92"/>
        <path class="cls-4" d="M150.4,96.48c44-10.3,86.57-5.74,127.82,11.79l-.22,1.56c-9.61-1.99-19.36-3.45-28.8-6.08-21.01-5.88-42.19-10.72-64.11-10.4-10.48.15-20.93,1.77-31.38,2.73-1.11.1-2.21.26-3.32.4"/>
        <path class="cls-4" d="M646.03,363.62v6.18h-11.32v32.96h-6.47v-32.89c-2.63,0-4.73.01-6.84,0-5.52-.01-5.78-.35-4.41-6.24h29.05Z"/>
        <path class="cls-4" d="M282.64,369.84c-3.4,0-6.27.27-9.06-.15-.98-.14-2.37-1.93-2.4-3.01-.03-1.06,1.38-3.11,2.21-3.13,8.9-.23,17.82-.14,27.02-.14v6.46h-11.07v32.8h-6.7v-32.83Z"/>
        <path class="cls-4" d="M512.73,402.96c-5.84,0-11.46.19-17.06-.05-6.46-.29-11.48-3.39-11.84-8.68-.66-10.11-.19-20.31-.19-30.66h5.73v15.37c0,3.32-.07,6.63.02,9.94.13,4.83,2.26,7.19,7.06,7.5,3.88.25,7.78.14,11.66.16,5.56.03,5.71.22,4.62,6.42"/>
        <path class="cls-4" d="M194.33,363.96c6-1.1,6.21-.96,6.22,4.38.03,6.63-.03,13.25.05,19.89.07,5.81,2.28,8.12,8.11,8.3,5.01.15,10.03.02,15.35.02v6.77c-7.15-.39-14.31-.42-21.35-1.3-4.75-.59-8.17-4.85-8.3-9.77-.25-9.35-.07-18.71-.07-28.29"/>
        <rect class="cls-4" x="308.33" y="363.56" width="5.82" height="39.14"/>
        <path class="cls-4" d="M603.35,363.86c5.75-.96,5.86-.88,5.88,4.55.05,9.94.09,19.89.09,29.82,0,1.42-.19,2.84-.32,4.49h-5.65v-38.87Z"/>
        <rect class="cls-4" x="520.83" y="363.71" width="5.65" height="39.06"/>
      </g>
      <text class="cls-3" transform="translate(38.18 502.12) scale(.98 1)"><tspan x="0" y="0">“Building Brands, Empowering Teams”</tspan></text>
      <rect class="cls-2" x="53.42" y="432.37" width="670.26" height="7.58"/>
    </g>
  </g>
</svg>