<?xml version="1.0" encoding="utf-8"?>
<!-- Generator: Adobe Illustrator 26.4.1, SVG Export Plug-In . SVG Version: 6.00 Build 0)  -->
<svg version="1.1" id="Layer_1" xmlns="http://www.w3.org/2000/svg" xmlns:xlink="http://www.w3.org/1999/xlink" x="0px" y="0px"
	 viewBox="0 0 1190.55 841.89" style="enable-background:new 0 0 1190.55 841.89;" xml:space="preserve">
<style type="text/css">
	.st0{fill:#232957;}
	.st1{font-family:'BrushScriptMT';}
	.st2{font-size:91.5442px;}
	.st3{letter-spacing:-4;}
	.st4{letter-spacing:-5;}
	.st5{letter-spacing:-10;}
	.st6{letter-spacing:-6;}
	.st7{fill:#24285D;}
	.st8{fill:#5E6060;}
	.st9{fill:#222957;}
	.st10{font-family:'NasalizationRg-Regular';}
	.st11{font-size:108.5783px;}
	.st12{letter-spacing:-7;}
</style>
<g>
	<text transform="matrix(1 0 0 1.0161 57.4019 690.1172)"><tspan x="0" y="0" class="st0 st1 st2 st3">“</tspan><tspan x="38.65" y="0" class="st0 st1 st2 st3">Bui</tspan><tspan x="132.72" y="0" class="st0 st1 st2 st3">l</tspan><tspan x="149.38" y="0" class="st0 st1 st2 st3">d</tspan><tspan x="183.34" y="0" class="st0 st1 st2 st3">in</tspan><tspan x="229.14" y="0" class="st0 st1 st2 st3">g Bra</tspan><tspan x="383.39" y="0" class="st0 st1 st2 st3">n</tspan><tspan x="412.52" y="0" class="st0 st1 st2 st3">d</tspan><tspan x="446.49" y="0" class="st0 st1 st2 st4">s</tspan><tspan x="469.56" y="0" class="st0 st1 st2 st3">,</tspan><tspan x="495.74" y="0" class="st0 st1 st2 st3"> </tspan><tspan x="517.23" y="0" class="st0 st1 st2 st3">E</tspan><tspan x="569.25" y="0" class="st0 st1 st2 st3">mpo</tspan><tspan x="672.92" y="0" class="st0 st1 st2 st3">w</tspan><tspan x="713.5" y="0" class="st0 st1 st2 st3">er</tspan><tspan x="758.54" y="0" class="st0 st1 st2 st3">in</tspan><tspan x="804.33" y="0" class="st0 st1 st2 st3">g</tspan><tspan x="835.34" y="0" class="st0 st1 st2 st5"> </tspan><tspan x="850.97" y="0" class="st0 st1 st2 st6">T</tspan><tspan x="896.95" y="0" class="st0 st1 st2 st3">eam</tspan><tspan x="998.7" y="0" class="st0 st1 st2 st3">s</tspan><tspan x="1022.96" y="0" class="st0 st1 st2">”</tspan></text>
	<polygon class="st7" points="104.43,146.89 89.7,188.4 191.46,188.4 96.39,394.59 235.64,394.59 254.38,362.45 157.98,359.77 
		254.38,152.25 	"/>
	<polygon class="st7" points="360.16,138.86 254.39,400.33 294.55,400.33 360.16,235.26 428.44,400.33 467.27,400.33 	"/>
	<polygon class="st8" points="315.97,394.59 360.83,291.15 405.68,394.59 	"/>
	<polygon class="st7" points="836.8,138.86 731.03,400.33 771.2,400.33 836.8,235.26 905.09,400.33 943.91,400.33 	"/>
	<polygon class="st8" points="792.62,394.59 837.47,291.15 882.33,394.59 	"/>
	<polygon class="st9" points="480.66,400.33 480.66,138.86 596.82,312.9 713.63,146.89 713.63,400.33 674.8,400.33 674.8,269.59 
		597.14,381.2 514.13,262.03 514.13,400.33 	"/>
	<path class="st7" d="M1051.03,312.89c0,0,43.61-15.37,54.89-76.98c8.32-45.43-31.3-68.63-52.69-77.68
		c-7.24-3.06-15-4.65-22.86-4.65H957.3v241h30.8v-81.69h30.79l57.57,81.69h46.86L1051.03,312.89z M990.78,279.44v-92.06h45.52
		c0,0,33.47,3.69,36.15,29.13c2.08,19.79-0.69,34.71-11.48,49.82c-6,8.4-15.92,13.11-26.25,13.11H990.78z"/>
	<text transform="matrix(1 0 0 1.0161 65.4761 503.0312)"><tspan x="0" y="0" class="st8 st10 st11 st4">S</tspan><tspan x="70.9" y="0" class="st8 st10 st11 st3">O</tspan><tspan x="154.5" y="0" class="st8 st10 st11 st12">L</tspan><tspan x="214.98" y="0" class="st8 st10 st11 st3">U</tspan><tspan x="289.47" y="0" class="st8 st10 st11 st4">T</tspan><tspan x="346.36" y="0" class="st8 st10 st11 st3">IONS</tspan><tspan x="617.26" y="0" class="st8 st10 st11 st4"> </tspan><tspan x="641.15" y="0" class="st8 st10 st11 st3">LIMI</tspan><tspan x="869.38" y="0" class="st8 st10 st11 st4">T</tspan><tspan x="926.27" y="0" class="st8 st10 st11 st3">E</tspan><tspan x="996.52" y="0" class="st8 st10 st11">D</tspan></text>
	<path class="st8" d="M652.25,174.31c0,30.44-24.67,55.11-55.11,55.11c-30.44,0-55.11-24.67-55.11-55.11
		c0-30.44,24.67-55.11,55.11-55.11C627.58,119.2,652.25,143.87,652.25,174.31"/>
</g>
</svg>
