<?xml version="1.0" encoding="utf-8"?>
<!-- Generator: Adobe Illustrator 26.4.1, SVG Export Plug-In . SVG Version: 6.00 Build 0)  -->
<svg version="1.1" id="Layer_1" xmlns="http://www.w3.org/2000/svg" xmlns:xlink="http://www.w3.org/1999/xlink" x="0px" y="0px"
	 viewBox="0 0 1190.55 478.07" style="enable-background:new 0 0 1190.55 478.07;" xml:space="preserve">
<style type="text/css">
	.st0{fill:#24275D;}
	.st1{fill:#5E5F5F;}
	.st2{fill:#232957;}
</style>
<g>
	<polygon class="st0" points="67.83,47.35 51.5,84.05 167.13,84.05 58.92,320.15 213.32,320.15 228.51,285.45 127.22,285.28 
		234.11,46.76 	"/>
	<polygon class="st0" points="340.41,47.35 229.3,322.01 271.49,322.01 340.41,148.61 412.14,322.01 452.92,322.01 	"/>
	<polygon class="st1" points="293.99,315.98 341.11,207.33 388.22,315.98 	"/>
	<polygon class="st0" points="841.09,47.35 729.98,322.01 772.17,322.01 841.09,148.61 912.82,322.01 953.6,322.01 	"/>
	<polygon class="st1" points="794.67,315.98 841.79,207.33 888.9,315.98 	"/>
	<path class="st1" d="M538.03,98.33c0,28.15,22.82,50.97,50.97,50.97c28.15,0,50.97-22.82,50.97-50.97
		c0-28.15-22.82-50.97-50.97-50.97C560.85,47.35,538.03,70.18,538.03,98.33"/>
	<polygon class="st2" points="466.98,322.02 466.98,47.36 588.99,230.17 711.7,55.79 711.7,322.02 670.91,322.02 670.91,184.69 
		589.34,301.92 502.14,176.74 502.14,322.02 	"/>
	<path class="st1" d="M99.67,351.66v13.68H60.19c-6.95,0-10.03,3.83-10.03,9.28c0,4.75,2.4,9.27,11.41,9.27h18.02
		c20.99,0,25.89,11.82,25.89,23.07c0,13.22-6.95,22.96-24.52,22.96H38.07v-13.68h43.34c7.3,0,10.61-4.06,10.61-9.74
		c0-5.1-2.63-9.74-12.09-9.74H62.02c-20.53,0-25.32-11.71-25.32-22.61c0-12.98,6.84-22.49,23.96-22.49H99.67z"/>
	<path class="st1" d="M157.03,351.66c22.36,0,34.79,12.98,34.79,39.3c0,26.19-12.32,38.95-34.79,38.95h-10.5
		c-22.47,0-34.79-12.76-34.79-38.95c0-26.32,12.44-39.3,34.79-39.3H157.03z M146.54,365.34c-14.83,0-21.33,7.65-21.33,25.63
		c0,17.85,6.39,25.27,21.33,25.27h10.5c14.82,0,21.21-7.42,21.21-25.39c0-17.86-6.39-25.51-21.21-25.51H146.54z"/>
	<path class="st1" d="M214.97,351.66v51.12c0,7.54,3.66,13.45,15.74,13.45h29.88v13.68h-30.68c-20.42,0-28.4-11.36-28.4-27.02
		v-51.24H214.97z"/>
	<path class="st1" d="M278.95,351.66v52.29c0,7.76,3.88,12.29,12.78,12.29h13.69c8.67,0,12.66-4.53,12.66-12.29v-52.29h13.23v53.33
		c0,16.46-8.56,24.93-24.99,24.93h-16.19c-16.43,0-24.87-8.46-24.87-24.93v-53.33H278.95z"/>
	<polygon class="st1" points="396.43,351.66 396.43,365.34 373.96,365.34 373.96,429.92 360.38,429.92 360.38,365.34 337.91,365.34 
		337.91,351.66 	"/>
	<rect x="403.72" y="351.66" class="st1" width="13.46" height="78.25"/>
	<path class="st1" d="M472.84,351.66c22.36,0,34.79,12.98,34.79,39.3c0,26.19-12.32,38.95-34.79,38.95h-10.5
		c-22.47,0-34.79-12.76-34.79-38.95c0-26.32,12.44-39.3,34.79-39.3H472.84z M462.35,365.34c-14.83,0-21.33,7.65-21.33,25.63
		c0,17.85,6.39,25.27,21.33,25.27h10.5c14.82,0,21.21-7.42,21.21-25.39c0-17.86-6.39-25.51-21.21-25.51H462.35z"/>
	<path class="st1" d="M531.46,429.91H518v-62.6c0-10.2,5.71-17.04,17.68-17.04c10.72,0,15.51,5.56,18.71,14.49l22.47,49.96
		c0.91,1.86,2.39,3.25,4.9,3.25c2.85,0,4.56-1.74,4.56-4.41v-61.91h13.57v62.49c0,10.31-5.81,17.16-17.67,17.16
		c-10.72,0-15.63-5.57-18.83-14.49l-22.47-49.97c-1.02-2.32-2.39-3.36-4.79-3.36c-3.08,0-4.68,1.74-4.68,4.52V429.91z"/>
	<path class="st1" d="M672.44,351.66v13.68h-39.47c-6.95,0-10.03,3.83-10.03,9.28c0,4.75,2.4,9.27,11.41,9.27h18.02
		c20.99,0,25.89,11.82,25.89,23.07c0,13.22-6.95,22.96-24.52,22.96h-42.89v-13.68h43.34c7.3,0,10.61-4.06,10.61-9.74
		c0-5.1-2.63-9.74-12.09-9.74h-17.91c-20.53,0-25.32-11.71-25.32-22.61c0-12.98,6.84-22.49,23.96-22.49H672.44z"/>
	<path class="st1" d="M725.58,351.66v51.12c0,7.54,3.66,13.45,15.74,13.45h29.88v13.68h-30.68c-20.42,0-28.4-11.36-28.4-27.02
		v-51.24H725.58z"/>
	<rect x="778.49" y="351.66" class="st1" width="13.46" height="78.25"/>
	<path class="st1" d="M818.41,429.91h-13.34v-62.14c0-10.43,6.04-17.5,18.48-17.5c10.95,0,17.22,5.56,19.39,15.41l10.84,47.88
		c0.68,2.78,2.28,4.41,5.13,4.41c2.85,0,4.45-1.62,5.14-4.41l10.84-47.88c2.16-9.85,7.87-15.41,18.94-15.41
		c12.43,0,18.47,7.07,18.47,17.5v62.14h-13.34v-61.44c0-3.02-1.94-4.99-5.48-4.99c-3.19,0-4.79,1.62-5.36,4.17l-11.06,47.88
		c-2.39,10.31-7.64,15.77-18.25,15.77c-10.72,0-16.32-5.68-18.59-15.77l-10.95-47.88c-0.57-2.55-2.28-4.17-5.36-4.17
		c-3.53,0-5.47,1.97-5.47,4.99V429.91z"/>
	<rect x="925.5" y="351.66" class="st1" width="13.46" height="78.25"/>
	<polygon class="st1" points="1004.66,351.66 1004.66,365.34 982.19,365.34 982.19,429.92 968.62,429.92 968.62,365.34 
		946.15,365.34 946.15,351.66 	"/>
	<path class="st1" d="M1073.45,351.66v13.68h-38.55c-8.1,0-11.64,3.83-11.64,9.86c0,6.37,3.99,9.27,11.75,9.27h37.87v12.4h-38.21
		c-7.76,0-11.75,3.13-11.75,9.5c0,6.15,3.76,9.86,11.63,9.86h39.02v13.68h-39.02c-18.25,0-25.67-9.16-25.67-21.33
		c0-8.93,4-14.96,11.07-17.97c-7.19-3.02-10.84-9.05-10.84-17.63c0-12.52,7.64-21.33,25.78-21.33H1073.45z"/>
	<path class="st1" d="M1119.18,351.66c22.46,0,34.67,12.75,34.67,39.19c0,26.31-12.09,39.07-34.67,39.07h-27.15
		c-4.34,0-6.39-2.09-6.39-6.38v-65.5c0-4.28,2.05-6.37,6.39-6.37H1119.18z M1099.09,414.84c0,1.04,0.46,1.4,1.49,1.4h18.59
		c14.94,0,21.21-7.54,21.21-25.51c0-17.85-6.28-25.39-21.21-25.39h-18.59c-1.03,0-1.49,0.35-1.49,1.4V414.84z"/>
	<path class="st0" d="M1069.58,224.66c0,0,44.76-12.25,57.32-80.83c7.1-38.77-17.59-68.65-39.46-82.86h0.02
		c-0.09-0.06-0.19-0.11-0.29-0.17c-5-3.22-9.83-5.62-14.1-7.12c-14.42-5.75-26.02-6.19-26.02-6.19l0.01,0.01
		c-1.16-0.09-2.27-0.14-3.27-0.14h-81.33v275.15h34.28v-97.84h34.27l64.08,96.52h41.9L1069.58,224.66z M999.72,187.43V84.97h50.67
		c0,0,37.26,4.11,40.24,32.42c2.32,22.03-0.77,38.64-12.78,55.45c-6.67,9.35-17.72,14.59-29.21,14.59H999.72z"/>
</g>
</svg>
