<?xml version="1.0" encoding="utf-8"?>
<!-- Generator: Adobe Illustrator 26.4.1, SVG Export Plug-In . SVG Version: 6.00 Build 0)  -->
<svg version="1.1" id="Layer_1" xmlns="http://www.w3.org/2000/svg" xmlns:xlink="http://www.w3.org/1999/xlink" x="0px" y="0px"
	 viewBox="0 0 1190.55 490.24" style="enable-background:new 0 0 1190.55 490.24;" xml:space="preserve">
<style type="text/css">
	.st0{fill:#24285D;}
	.st1{fill:#5E6060;}
	.st2{fill:#222957;}
	.st3{fill:#FFFFFF;}
	.st4{font-family:'NasalizationRg-Regular';}
	.st5{font-size:108.8577px;}
	.st6{letter-spacing:-5;}
	.st7{letter-spacing:-7;}
</style>
<g>
	<polygon class="st0" points="94.65,65.87 79.89,107.48 181.9,107.48 86.6,314.2 226.2,314.2 244.99,281.98 148.35,279.3 
		244.99,71.24 	"/>
	<polygon class="st0" points="351.04,57.81 245,319.96 285.27,319.96 351.04,154.46 419.5,319.96 458.43,319.96 	"/>
	<polygon class="st1" points="306.74,314.2 351.71,210.5 396.68,314.2 	"/>
	<polygon class="st0" points="828.91,57.81 722.87,319.96 763.14,319.96 828.91,154.46 897.37,319.96 936.3,319.96 	"/>
	<polygon class="st1" points="784.62,314.2 829.58,210.5 874.55,314.2 	"/>
	<polygon class="st2" points="471.85,319.96 471.85,57.81 588.31,232.3 705.42,65.86 705.42,319.96 666.49,319.96 666.49,188.89 
		588.63,300.78 505.41,181.31 505.41,319.96 	"/>
	<path class="st0" d="M949.72,314.2V72.58h73.26c7.88,0,15.66,1.59,22.92,4.66c21.44,9.07,61.16,32.32,52.82,77.88
		c-11.31,61.77-55.03,77.18-55.03,77.18l72.49,81.9h-46.98l-57.72-81.9H980.6v81.9H949.72z"/>
	<path class="st3" d="M983.28,198.76v-92.3h45.64c0,0,33.56,3.7,36.24,29.21c2.09,19.84-0.7,34.8-11.51,49.94
		c-6.02,8.42-15.97,13.14-26.31,13.14H983.28z"/>
	<text transform="matrix(1 0 0 1.0161 55.6192 422.9398)"><tspan x="0" y="0" class="st1 st4 st5 st6">S</tspan><tspan x="71.08" y="0" class="st1 st4 st5 st6">O</tspan><tspan x="154.9" y="0" class="st1 st4 st5 st7">L</tspan><tspan x="215.54" y="0" class="st1 st4 st5 st6">U</tspan><tspan x="290.21" y="0" class="st1 st4 st5 st6">T</tspan><tspan x="347.25" y="0" class="st1 st4 st5 st6">IONS</tspan><tspan x="618.85" y="0" class="st1 st4 st5 st6"> </tspan><tspan x="642.8" y="0" class="st1 st4 st5 st6">LIMI</tspan><tspan x="871.61" y="0" class="st1 st4 st5 st6">T</tspan><tspan x="928.65" y="0" class="st1 st4 st5 st6">E</tspan><tspan x="999.08" y="0" class="st1 st4 st5">D</tspan></text>
	<path class="st1" d="M643.89,93.35c0,30.52-24.74,55.25-55.25,55.25c-30.52,0-55.25-24.73-55.25-55.25
		c0-30.52,24.74-55.25,55.25-55.25C619.15,38.1,643.89,62.84,643.89,93.35"/>
</g>
</svg>
